
        <svg xmlns="http://www.w3.org/2000/svg" xmlns:xlink="http://www.w3.org/1999/xlink" version="1.1" width="3151.701940584287" 
        height="872.4807199313609" viewBox="0 0 3151.701940584287 872.4807199313609">
			
			<g transform="scale(7.585097029214349) translate(10, 10)">
				<defs id="SvgjsDefs1913"></defs><g id="SvgjsG1914" featureKey="sloganFeature-0" transform="matrix(1.2031267881393433,0,0,1.2031267881393433,80.26749795591108,70.52998815810184)" fill="#d5ce58"><path d="M9.96 20 c-3.36 -0.24 -7.6 -0.12 -8.52 -0.1 c0.2 -4.26 0.2 -8.42 0 -12.76 c0.94 0.22 1.62 -0.16 2.42 0 c-0.22 4.24 -0.22 8.28 0 11.7 c1.72 -0.16 4.24 -0.24 5.92 -0.68 c0.3 0.82 -0.08 1.1 0.18 1.84 z M19.842 20.1 c-3.52 -0.24 -7.92 -0.16 -9 -0.1 c0.24 -4.2 0.24 -8.46 0 -12.76 c0.96 0.1 5.36 0.2 8.78 -0.1 c0.1 0.6 -0.22 1.06 -0.18 1.78 c-1.58 -0.24 -4.4 -0.46 -6.18 -0.62 c-0.04 1.56 -0.06 3.18 -0.08 4.78 l5.62 -0.08 c0.04 0.44 -0.12 0.56 0 1.02 l-5.62 -0.08 c0 1.68 0.04 3.38 0.08 5.04 c1.84 -0.08 4.78 -0.42 6.4 -0.66 c0 0.72 0.36 1.18 0.18 1.78 z M30.564 8.98 c-1.08 -0.24 -2.88 -0.7 -4.18 -0.68 c-0.24 4.36 -0.26 7.26 0 11.7 c-0.8 0.16 -1.46 -0.28 -2.42 0 c0.2 -4.44 0.24 -7.34 0 -11.7 c-1.18 -0.02 -3.1 0.44 -4.18 0.68 c0.32 -0.68 0 -1.24 0.18 -1.84 c2 0.1 4 0.34 5.2 0.34 c1.14 0 3.18 -0.22 5.22 -0.34 c0.18 0.6 -0.12 1.22 0.18 1.84 z M45.148 8.98 c-1.08 -0.24 -2.88 -0.7 -4.18 -0.68 c-0.24 4.36 -0.26 7.26 0 11.7 c-0.8 0.16 -1.46 -0.28 -2.42 0 c0.2 -4.44 0.24 -7.34 0 -11.7 c-1.18 -0.02 -3.1 0.44 -4.18 0.68 c0.32 -0.68 0 -1.24 0.18 -1.84 c2 0.1 4 0.34 5.2 0.34 c1.14 0 3.18 -0.22 5.22 -0.34 c0.18 0.6 -0.12 1.22 0.18 1.84 z M48.39000000000001 7.24 c-0.18 2 -0.2 3.82 -0.08 5.76 c1.86 0.02 3.9 0.02 5.72 0 c0.12 -1.9 0.12 -3.76 -0.06 -5.76 c0.82 -0.14 1.6 0.06 2.44 0 c-0.24 4.28 -0.28 8.5 0 12.76 c-0.88 -0.08 -1.62 0.16 -2.44 0 c0.06 -1.98 0.24 -4 0.06 -6.04 c-1.82 -0.02 -3.86 -0.02 -5.72 0 c-0.14 2.08 -0.1 4.04 0.08 6.04 c-0.82 0.16 -1.56 -0.1 -2.44 0 c0.28 -4.24 0.34 -8.44 0 -12.76 c0.92 0.1 1.62 -0.14 2.44 0 z  M67.012 20.1 c-3.52 -0.24 -7.92 -0.16 -9 -0.1 c0.24 -4.2 0.24 -8.46 0 -12.76 c0.96 0.1 5.36 0.2 8.78 -0.1 c0.1 0.6 -0.22 1.06 -0.18 1.78 c-1.58 -0.24 -4.4 -0.46 -6.18 -0.62 c-0.04 1.56 -0.06 3.18 -0.08 4.78 l5.62 -0.08 c0.04 0.44 -0.12 0.56 0 1.02 l-5.62 -0.08 c0 1.68 0.04 3.38 0.08 5.04 c1.84 -0.08 4.78 -0.42 6.4 -0.66 c0 0.72 0.36 1.18 0.18 1.78 z M71.656 13.58 c0 -3.76 2.2 -6.54 5.84 -6.54 c2.22 0 4.48 1.06 4.92 4.02 l-2.44 0.36 l-0.28 -0.14 c0.24 -0.06 0.28 -0.5 0.26 -1.36 c-0.04 -1.46 -1.12 -2.06 -2.3 -2.06 c-2.28 0 -3.36 2.12 -3.36 5.72 c0 3.76 1.16 5.96 3.72 5.96 c1.3 0 2.3 -0.92 2.32 -2.86 c0.02 -1.84 -0.72 -3.3 -1.62 -2.74 l0.08 -0.28 l2.72 0 c0.72 0.46 1.14 1.42 1.14 2.28 c0 3 -2.8 4.42 -4.98 4.42 c-3.58 0 -6.02 -2.82 -6.02 -6.78 z M94.418 20 c-1.2 0.04 -2.02 -0.24 -3.1 0 c-0.66 -0.56 -1.28 -1.44 -3.84 -3.66 c-0.36 -0.32 -0.74 -0.54 -1.28 -0.76 c0 1.5 0.02 3.02 0.06 4.42 c-0.78 0.18 -1.4 -0.3 -2.38 0 c0.22 -4.34 0.22 -8.06 0 -12.64 c1.74 0.04 3.12 -0.32 4.38 -0.32 c1.36 0 5.14 0.16 5.14 3.88 c0 2.84 -3.4 4.7 -6.56 4.44 c1.3 0.16 2.32 0.18 3.12 0.6 c1.52 0.8 2.4 2.5 4.46 4.04 z M86.178 14.620000000000001 c0.6 0.04 1.14 0.06 1.38 0.06 c1.82 0 3.28 -0.94 3.28 -3.44 c0 -2.56 -1.36 -3.36 -2.98 -3.36 c-0.4 0 -0.98 0 -1.6 0.06 c-0.06 2.08 -0.08 4.38 -0.08 6.68 z M103.88000000000001 20.1 c-3.52 -0.24 -7.92 -0.16 -9 -0.1 c0.24 -4.2 0.24 -8.46 0 -12.76 c0.96 0.1 5.36 0.2 8.78 -0.1 c0.1 0.6 -0.22 1.06 -0.18 1.78 c-1.58 -0.24 -4.4 -0.46 -6.18 -0.62 c-0.04 1.56 -0.06 3.18 -0.08 4.78 l5.62 -0.08 c0.04 0.44 -0.12 0.56 0 1.02 l-5.62 -0.08 c0 1.68 0.04 3.38 0.08 5.04 c1.84 -0.08 4.78 -0.42 6.4 -0.66 c0 0.72 0.36 1.18 0.18 1.78 z M113.58200000000001 20.1 c-3.52 -0.24 -7.92 -0.16 -9 -0.1 c0.24 -4.2 0.24 -8.46 0 -12.76 c0.96 0.1 5.36 0.2 8.78 -0.1 c0.1 0.6 -0.22 1.06 -0.18 1.78 c-1.58 -0.24 -4.4 -0.46 -6.18 -0.62 c-0.04 1.56 -0.06 3.18 -0.08 4.78 l5.62 -0.08 c0.04 0.44 -0.12 0.56 0 1.02 l-5.62 -0.08 c0 1.68 0.04 3.38 0.08 5.04 c1.84 -0.08 4.78 -0.42 6.4 -0.66 c0 0.72 0.36 1.18 0.18 1.78 z M125.32400000000001 7.24 c-0.22 4.22 -0.18 8.52 0 12.76 c-1.1 -0.22 -1.8 0.16 -2.58 0 c-2.14 -3.76 -4.18 -7.02 -6.7 -10.5 l-0.06 -0.26 l0.04 0.22 c0.02 3.28 0.14 7.14 0.36 10.54 c-0.66 -0.2 -1.14 0.16 -1.72 0 c0.1 -4.24 0.1 -8.52 0 -12.76 c0.88 -0.14 1.48 0.14 2.58 0 c2.16 3.74 4.3 7.14 6.72 10.5 l0.04 0.24 l-0.02 -0.2 c-0.04 -3.28 -0.14 -7.12 -0.36 -10.54 c0.68 0.16 1.12 -0.14 1.7 0 z M135.02800000000002 20.36 c-0.8 0 -2.36 -0.38 -4.22 -0.36 c0.2 -4.5 0.22 -8.24 0 -12.58 c1.34 0.02 3.36 -0.38 4.26 -0.38 c1.36 0 5.02 0.26 5.02 2.84 c0 1.88 -2.66 3.04 -4.68 3.3 c2.26 0.12 5.44 0.98 5.44 3.48 c0 3.22 -4.14 3.7 -5.82 3.7 z M133.20800000000003 8 c-0.02 1.62 -0.06 3.2 -0.06 4.8 c0.64 0.02 1.3 0.02 1.76 0 c1.56 -0.14 2.76 -0.96 2.76 -2.8 c0 -1.54 -1.02 -2.14 -2.62 -2.14 c-0.42 0 -1.1 0.04 -1.84 0.14 z M134.88800000000003 13.64 c-0.5 -0.02 -1.1 -0.02 -1.74 0 c0 1.82 0.04 3.7 0.08 5.72 c0.42 0.1 0.96 0.18 1.54 0.18 c2.26 0 3.54 -1 3.54 -2.94 c0 -1.96 -1.34 -2.78 -3.42 -2.96 z M152.53 20 c-1.2 0.04 -2.02 -0.24 -3.1 0 c-0.66 -0.56 -1.28 -1.44 -3.84 -3.66 c-0.36 -0.32 -0.74 -0.54 -1.28 -0.76 c0 1.5 0.02 3.02 0.06 4.42 c-0.78 0.18 -1.4 -0.3 -2.38 0 c0.22 -4.34 0.22 -8.06 0 -12.64 c1.74 0.04 3.12 -0.32 4.38 -0.32 c1.36 0 5.14 0.16 5.14 3.88 c0 2.84 -3.4 4.7 -6.56 4.44 c1.3 0.16 2.32 0.18 3.12 0.6 c1.52 0.8 2.4 2.5 4.46 4.04 z M144.29000000000002 14.620000000000001 c0.6 0.04 1.14 0.06 1.38 0.06 c1.82 0 3.28 -0.94 3.28 -3.44 c0 -2.56 -1.36 -3.36 -2.98 -3.36 c-0.4 0 -0.98 0 -1.6 0.06 c-0.06 2.08 -0.08 4.38 -0.08 6.68 z M161.992 20.1 c-3.52 -0.24 -7.92 -0.16 -9 -0.1 c0.24 -4.2 0.24 -8.46 0 -12.76 c0.96 0.1 5.36 0.2 8.78 -0.1 c0.1 0.6 -0.22 1.06 -0.18 1.78 c-1.58 -0.24 -4.4 -0.46 -6.18 -0.62 c-0.04 1.56 -0.06 3.18 -0.08 4.78 l5.62 -0.08 c0.04 0.44 -0.12 0.56 0 1.02 l-5.62 -0.08 c0 1.68 0.04 3.38 0.08 5.04 c1.84 -0.08 4.78 -0.42 6.4 -0.66 c0 0.72 0.36 1.18 0.18 1.78 z M164.334 20 c-0.62 0.18 -1.02 -0.22 -1.92 0 c1.66 -3.62 3.68 -8.46 5.3 -12.76 c0.8 -0.18 1.14 0.08 2.04 0 c1.42 4.32 2.82 8 4.94 12.76 c-0.98 0.18 -1.66 -0.36 -2.74 0 l-0.96 -2.92 c-1.9 -0.06 -3.82 -0.06 -5.7 0 c-0.34 0.98 -0.68 1.96 -0.96 2.92 z M168.254 9.18 c-1.06 2.36 -1.96 4.64 -2.64 6.92 c1.74 0.14 3.22 0.16 5.04 0.02 c-0.68 -2.5 -1.5 -4.9 -2.4 -6.94 z M183.696 8.98 c-1.08 -0.24 -2.88 -0.7 -4.18 -0.68 c-0.24 4.36 -0.26 7.26 0 11.7 c-0.8 0.16 -1.46 -0.28 -2.42 0 c0.2 -4.44 0.24 -7.34 0 -11.7 c-1.18 -0.02 -3.1 0.44 -4.18 0.68 c0.32 -0.68 0 -1.24 0.18 -1.84 c2 0.1 4 0.34 5.2 0.34 c1.14 0 3.18 -0.22 5.22 -0.34 c0.18 0.6 -0.12 1.22 0.18 1.84 z M186.938 7.24 c-0.18 2 -0.2 3.82 -0.08 5.76 c1.86 0.02 3.9 0.02 5.72 0 c0.12 -1.9 0.12 -3.76 -0.06 -5.76 c0.82 -0.14 1.6 0.06 2.44 0 c-0.24 4.28 -0.28 8.5 0 12.76 c-0.88 -0.08 -1.62 0.16 -2.44 0 c0.06 -1.98 0.24 -4 0.06 -6.04 c-1.82 -0.02 -3.86 -0.02 -5.72 0 c-0.14 2.08 -0.1 4.04 0.08 6.04 c-0.82 0.16 -1.56 -0.1 -2.44 0 c0.28 -4.24 0.34 -8.44 0 -12.76 c0.92 0.1 1.62 -0.14 2.44 0 z "></path></g><g id="SvgjsG1915" featureKey="nameLeftFeature-0" transform="matrix(1.3368077278137207,0,0,1.3368077278137207,-4.224312490202713,-4.822251232791022)" fill="#d5ce58"><path d="M3.16 27.16 c0 -7.52 4.4 -13.08 11.68 -13.08 c4.44 0 8.96 2.12 9.84 8.04 l-4.88 0.72 l-0.56 -0.28 c0.48 -0.12 0.56 -1 0.52 -2.72 c-0.08 -2.92 -2.24 -4.12 -4.6 -4.12 c-4.56 0 -6.72 4.24 -6.72 11.44 c0 7.52 2.32 11.92 7.44 11.92 c2.6 0 4.6 -1.84 4.64 -5.72 c0.04 -3.68 -1.44 -6.6 -3.24 -5.48 l0.16 -0.56 l5.44 0 c1.44 0.92 2.28 2.84 2.28 4.56 c0 6 -5.6 8.84 -9.96 8.84 c-7.16 0 -12.04 -5.64 -12.04 -13.56 z M48.684 40 c-2.4 0.08 -4.04 -0.48 -6.2 0 c-1.32 -1.12 -2.56 -2.88 -7.68 -7.32 c-0.72 -0.64 -1.48 -1.08 -2.56 -1.52 c0 3 0.04 6.04 0.12 8.84 c-1.56 0.36 -2.8 -0.6 -4.76 0 c0.44 -8.68 0.44 -16.12 0 -25.28 c3.48 0.08 6.24 -0.64 8.76 -0.64 c2.72 0 10.28 0.32 10.28 7.76 c0 5.68 -6.8 9.4 -13.12 8.88 c2.6 0.32 4.64 0.36 6.24 1.2 c3.04 1.6 4.8 5 8.92 8.08 z M32.204 29.240000000000002 c1.2 0.08 2.28 0.12 2.76 0.12 c3.64 0 6.56 -1.88 6.56 -6.88 c0 -5.12 -2.72 -6.72 -5.96 -6.72 c-0.8 0 -1.96 0 -3.2 0.12 c-0.12 4.16 -0.16 8.76 -0.16 13.36 z M67.608 40.2 c-7.04 -0.48 -15.84 -0.32 -18 -0.2 c0.48 -8.4 0.48 -16.92 0 -25.52 c1.92 0.2 10.72 0.4 17.56 -0.2 c0.2 1.2 -0.44 2.12 -0.36 3.56 c-3.16 -0.48 -8.8 -0.92 -12.36 -1.24 c-0.08 3.12 -0.12 6.36 -0.16 9.56 l11.24 -0.16 c0.08 0.88 -0.24 1.12 0 2.04 l-11.24 -0.16 c0 3.36 0.08 6.76 0.16 10.08 c3.68 -0.16 9.56 -0.84 12.8 -1.32 c0 1.44 0.72 2.36 0.36 3.56 z M87.012 40.2 c-7.04 -0.48 -15.84 -0.32 -18 -0.2 c0.48 -8.4 0.48 -16.92 0 -25.52 c1.92 0.2 10.72 0.4 17.56 -0.2 c0.2 1.2 -0.44 2.12 -0.36 3.56 c-3.16 -0.48 -8.8 -0.92 -12.36 -1.24 c-0.08 3.12 -0.12 6.36 -0.16 9.56 l11.24 -0.16 c0.08 0.88 -0.24 1.12 0 2.04 l-11.24 -0.16 c0 3.36 0.08 6.76 0.16 10.08 c3.68 -0.16 9.56 -0.84 12.8 -1.32 c0 1.44 0.72 2.36 0.36 3.56 z M110.496 14.48 c-0.44 8.44 -0.36 17.04 0 25.52 c-2.2 -0.44 -3.6 0.32 -5.16 0 c-4.28 -7.52 -8.36 -14.04 -13.4 -21 l-0.12 -0.52 l0.08 0.44 c0.04 6.56 0.28 14.28 0.72 21.08 c-1.32 -0.4 -2.28 0.32 -3.44 0 c0.2 -8.48 0.2 -17.04 0 -25.52 c1.76 -0.28 2.96 0.28 5.16 0 c4.32 7.48 8.6 14.28 13.44 21 l0.08 0.48 l-0.04 -0.4 c-0.08 -6.56 -0.28 -14.24 -0.72 -21.08 c1.36 0.32 2.24 -0.28 3.4 0 z"></path></g><g id="SvgjsG1916" featureKey="inlineSymbolFeature-0" transform="matrix(0.7640982866287231,0,0,0.7640982866287231,145.5273636948658,-6.152404424502234)" fill="#d5ce58"><g xmlns="http://www.w3.org/2000/svg"><path d="M76.902,85.78c-5.393-6.209-7.25-14.927-6.593-26.14c0.151-2.588,0.437-5.309,0.845-8.162l0.04-0.408   c0.01-0.08,0.017-0.163,0.024-0.244l0.065-0.652c-0.005,0.002-0.009,0.004-0.013,0.004c0.023-0.363,0.039-0.73,0.039-1.102   c0-0.801-0.074-1.582-0.178-2.354c-0.051-0.37-0.126-0.731-0.197-1.095c-3.494-1.022-6.557-3.776-8.493-5.886   c-1.721,5.961-7.524,8.145-7.813,8.25l-0.496,0.181l-0.498-0.181c-0.287-0.105-6.091-2.289-7.812-8.25   c-2.04,2.223-5.329,5.156-9.055,6.03c-0.206,1.071-0.323,2.173-0.323,3.304c0,0.338,0.027,0.717,0.075,1.113   c-0.015-0.006-0.026-0.01-0.041-0.016l0.131,1.305c2.17,15.22,0.888,26.66-5.748,34.302c0,0-0.399,0.37-0.146,0.945   c0.11,0.25,0.397,0.511,0.84,0.481c1.039-0.074,9.631-1.207,13.387-4.801c0.329,0.605,0.777,1.139,1.32,1.556l0.002,0.002   c0,0,0.004,0.002,0.004,0.003c0.238,0.183,0.494,0.344,0.766,0.481c1.746,1.143,5.895,4.108,6.359,6.784l0.008,0.001   c0.011,0.396,0.332,0.714,0.73,0.714c0.402,0,0.73-0.328,0.73-0.731c0-0.013-0.003-0.024-0.004-0.038l0.012-0.002   c0.461-2.654,4.547-5.561,6.317-6.707c0.286-0.142,0.556-0.311,0.808-0.502c0-0.001,0.004-0.003,0.004-0.003l0.002-0.002   c0.543-0.417,0.991-0.95,1.32-1.556c3.428,3.219,10.064,4.373,10.078,4.373c0.152,0.033,2.008,0.371,2.807,0.428   c0.443,0.029,0.729-0.231,0.84-0.481C77.301,86.15,76.902,85.78,76.902,85.78z"></path><g><path d="M57.341,25.264c-0.36-1.438-1.658-2.504-3.208-2.504s-2.848,1.066-3.209,2.504c-15.752,3.423-16.297,18.351-16.297,18.351    c6.355,0,12.173-8.324,12.173-8.324c0,7.697,7.333,10.366,7.333,10.366s7.333-2.669,7.333-10.366c0,0,5.817,8.324,12.173,8.324    C73.639,43.615,73.123,28.731,57.341,25.264z"></path></g><path d="M62.062,9.04c-0.354,0-0.692,0.062-1.009,0.171c-0.005,0.001-0.009,0.001-0.015,0.002   c-0.609,0.141-1.429,0.392-2.328,0.853c-0.655,0.334-1.354,0.787-2.009,1.353l-6.894,1.784l0.016,0.085l-0.103,0.026   c-0.013-0.044-0.021-0.088-0.034-0.132c-1.736-4.599-6.632-5.858-9.742-4.756c-4.676,1.324-5.588,8.492-17.077,8.495   c6.991,5.623,16.074,8.45,20.751,7.126c4.137-1.172,6.738-5.115,6.365-9.246l4.762-1.079c-0.123,0.198-0.248,0.393-0.351,0.599   l-0.21,0.405l-0.182,0.412c-0.24,0.548-0.42,1.104-0.569,1.647c-0.141,0.544-0.247,1.077-0.319,1.588   c-0.045,0.255-0.062,0.506-0.086,0.75c-0.025,0.244-0.047,0.482-0.053,0.712c-0.008,0.229-0.018,0.451-0.025,0.667   c0.002,0.213,0.005,0.419,0.008,0.617c0,0.015,0,0.029,0,0.044c0.371-0.105,0.756-0.179,1.161-0.179   c0.526,0,1.024,0.108,1.489,0.281c0.033-0.123,0.066-0.245,0.101-0.374c0.058-0.174,0.116-0.353,0.177-0.539   c0.055-0.185,0.127-0.368,0.2-0.554c0.075-0.185,0.142-0.376,0.231-0.559c0.328-0.746,0.754-1.472,1.252-2.066l0.186-0.221   l0.197-0.202c0.125-0.139,0.268-0.252,0.398-0.372c0.276-0.223,0.547-0.421,0.828-0.569c0.274-0.156,0.549-0.272,0.814-0.358   c0.261-0.09,0.515-0.146,0.748-0.182c0.376-0.062,0.748-0.072,1.001-0.059c0.021,0.002,0.044,0.002,0.065,0.003   c0.033,0.002,0.066,0.005,0.094,0.009v-0.004c0.054,0.003,0.105,0.008,0.16,0.008c1.709,0,3.094-1.386,3.094-3.095   C65.156,10.426,63.771,9.04,62.062,9.04z"></path></g></g><g id="SvgjsG1917" featureKey="nameRightFeature-0" transform="matrix(1.3368074893951416,0,0,1.3368074893951416,210.03838063552678,-4.82224853755147)" fill="#d5ce58"><path d="M18.884 40.72 c-1.6 0 -4.72 -0.76 -8.44 -0.72 c0.4 -9 0.44 -16.48 0 -25.16 c2.68 0.04 6.72 -0.76 8.52 -0.76 c2.72 0 10.04 0.52 10.04 5.68 c0 3.76 -5.32 6.08 -9.36 6.6 c4.52 0.24 10.88 1.96 10.88 6.96 c0 6.44 -8.28 7.4 -11.64 7.4 z M15.244 16 c-0.04 3.24 -0.12 6.4 -0.12 9.6 c1.28 0.04 2.6 0.04 3.52 0 c3.12 -0.28 5.52 -1.92 5.52 -5.6 c0 -3.08 -2.04 -4.28 -5.24 -4.28 c-0.84 0 -2.2 0.08 -3.68 0.28 z M18.604 27.28 c-1 -0.04 -2.2 -0.04 -3.48 0 c0 3.64 0.08 7.4 0.16 11.44 c0.84 0.2 1.92 0.36 3.08 0.36 c4.52 0 7.08 -2 7.08 -5.88 c0 -3.92 -2.68 -5.56 -6.84 -5.92 z M53.888000000000005 40 c-2.4 0.08 -4.04 -0.48 -6.2 0 c-1.32 -1.12 -2.56 -2.88 -7.68 -7.32 c-0.72 -0.64 -1.48 -1.08 -2.56 -1.52 c0 3 0.04 6.04 0.12 8.84 c-1.56 0.36 -2.8 -0.6 -4.76 0 c0.44 -8.68 0.44 -16.12 0 -25.28 c3.48 0.08 6.24 -0.64 8.76 -0.64 c2.72 0 10.28 0.32 10.28 7.76 c0 5.68 -6.8 9.4 -13.12 8.88 c2.6 0.32 4.64 0.36 6.24 1.2 c3.04 1.6 4.8 5 8.92 8.08 z M37.408 29.240000000000002 c1.2 0.08 2.28 0.12 2.76 0.12 c3.64 0 6.56 -1.88 6.56 -6.88 c0 -5.12 -2.72 -6.72 -5.96 -6.72 c-0.8 0 -1.96 0 -3.2 0.12 c-0.12 4.16 -0.16 8.76 -0.16 13.36 z M72.812 40.2 c-7.04 -0.48 -15.84 -0.32 -18 -0.2 c0.48 -8.4 0.48 -16.92 0 -25.52 c1.92 0.2 10.72 0.4 17.56 -0.2 c0.2 1.2 -0.44 2.12 -0.36 3.56 c-3.16 -0.48 -8.8 -0.92 -12.36 -1.24 c-0.08 3.12 -0.12 6.36 -0.16 9.56 l11.24 -0.16 c0.08 0.88 -0.24 1.12 0 2.04 l-11.24 -0.16 c0 3.36 0.08 6.76 0.16 10.08 c3.68 -0.16 9.56 -0.84 12.8 -1.32 c0 1.44 0.72 2.36 0.36 3.56 z M77.49600000000001 40 c-1.24 0.36 -2.04 -0.44 -3.84 0 c3.32 -7.24 7.36 -16.92 10.6 -25.52 c1.6 -0.36 2.28 0.16 4.08 0 c2.84 8.64 5.64 16 9.88 25.52 c-1.96 0.36 -3.32 -0.72 -5.48 0 l-1.92 -5.84 c-3.8 -0.12 -7.64 -0.12 -11.4 0 c-0.68 1.96 -1.36 3.92 -1.92 5.84 z M85.33600000000001 18.36 c-2.12 4.72 -3.92 9.28 -5.28 13.84 c3.48 0.28 6.44 0.32 10.08 0.04 c-1.36 -5 -3 -9.8 -4.8 -13.88 z M116.22 17.96 c-2.16 -0.48 -5.76 -1.4 -8.36 -1.36 c-0.48 8.72 -0.52 14.52 0 23.4 c-1.6 0.32 -2.92 -0.56 -4.84 0 c0.4 -8.88 0.48 -14.68 0 -23.4 c-2.36 -0.04 -6.2 0.88 -8.36 1.36 c0.64 -1.36 0 -2.48 0.36 -3.68 c4 0.2 8 0.68 10.4 0.68 c2.28 0 6.36 -0.44 10.44 -0.68 c0.36 1.2 -0.24 2.44 0.36 3.68 z M122.70400000000001 14.48 c-0.36 4 -0.4 7.64 -0.16 11.52 c3.72 0.04 7.8 0.04 11.44 0 c0.24 -3.8 0.24 -7.52 -0.12 -11.52 c1.64 -0.28 3.2 0.12 4.88 0 c-0.48 8.56 -0.56 17 0 25.52 c-1.76 -0.16 -3.24 0.32 -4.88 0 c0.12 -3.96 0.48 -8 0.12 -12.08 c-3.64 -0.04 -7.72 -0.04 -11.44 0 c-0.28 4.16 -0.2 8.08 0.16 12.08 c-1.64 0.32 -3.12 -0.2 -4.88 0 c0.56 -8.48 0.68 -16.88 0 -25.52 c1.84 0.2 3.24 -0.28 4.88 0 z "></path></g>
			</g>
		</svg>
	